<svg xmlns="http://www.w3.org/2000/svg" viewBox="0 0 347 386" width="100%" height="100%">
  <g fill="#EB0028">
    <path d="M224.388504,281.617218
      C233.951141,301.563782 232.214447,320.165222 218.084381,337.511200
      C214.687042,341.681763 210.860764,342.601532 205.829926,341.701019
      C186.998474,338.330261 174.295410,327.640198 167.272125,309.997742
      C166.302399,307.561798 165.536087,305.044830 164.484940,302.015991
      C163.625854,304.655365 162.963089,306.885681 162.178299,309.072205
      C155.425720,327.885468 142.018585,338.607056 122.402336,341.851990
      C117.906548,342.595673 114.607780,341.363708 111.484413,337.813080
      C98.262070,322.781982 95.134041,302.437286 103.641296,284.283539
      C104.090439,283.325104 104.571869,282.381805 105.364510,280.766663
      C99.445892,283.703217 94.514412,286.734680 89.186592,288.681427
      C74.473755,294.057251 60.494625,291.814728 47.074558,283.977936
      C42.745998,281.450226 41.375092,278.040100 41.146290,273.403320
      C40.225990,254.752655 51.869919,236.031174 69.671768,227.831726
      C70.773849,227.324127 71.860512,226.783051 73.400513,226.043182
      C67.411057,224.666061 61.868786,223.913498 56.696083,222.104324
      C41.367905,216.743164 31.526480,205.903259 26.458681,190.545914
      C25.200565,186.733353 25.827244,183.671906 28.237740,180.379807
      C40.251755,163.971848 64.958534,156.029938 82.514633,163.877213
      C82.878128,164.039688 83.452744,163.729889 84.564903,163.520889
      C83.499886,162.301682 82.748131,161.324402 81.879982,160.464645
      C66.955811,145.684402 63.085167,125.099701 71.379013,105.729660
      C72.784576,102.447006 74.966949,100.881760 78.229431,100.023613
      C97.007324,95.084335 118.265450,102.764488 129.518814,118.651527
      C130.431778,119.940407 131.333542,121.237221 132.528580,122.941040
      C132.974716,116.274239 132.741425,110.096550 133.906845,104.195076
      C137.132706,87.860062 146.849564,76.400856 162.011139,69.695358
      C163.665146,68.963844 166.327026,69.205597 168.005890,70.036980
      C185.720642,78.809456 195.934875,92.600800 196.003174,112.945984
      C196.011002,115.277603 195.996475,117.609444 196.029221,119.940659
      C196.033142,120.220062 196.269943,120.496201 196.775909,121.586586
      C198.219727,120.037994 199.527740,118.783173 200.667038,117.390335
      C212.906982,102.426598 228.681793,96.765572 247.687698,99.224564
      C254.049347,100.047638 257.503387,103.409203 259.387390,109.510933
      C265.736237,130.073288 260.758667,147.454971 244.905273,163.009201
      C246.840851,162.845734 248.314377,162.913330 249.688721,162.576370
      C269.971558,157.603424 289.577637,164.764572 301.722076,181.401855
      C303.712006,184.127930 304.014587,186.535355 303.102325,189.699982
      C297.559692,208.927139 279.998505,225.248856 254.252670,225.183914
      C257.946075,227.042160 261.272491,228.397568 264.270447,230.276962
      C280.812469,240.647125 288.516937,255.721115 287.886169,275.181641
      C287.761139,279.039703 286.051392,281.513977 282.762421,283.589294
      C264.632294,295.029205 243.830338,294.169952 225.364990,280.630188
      C224.359238,280.269562 223.811508,280.278412 223.263763,280.287262
      C223.638687,280.730560 224.013596,281.173889 224.388504,281.617218
      M247.713196,225.348724
      C250.045746,210.744995 257.758392,199.609222 270.143036,191.338867
      C239.126709,180.990662 227.092651,159.858322 233.087616,128.167892
      C205.361130,141.003174 176.437592,129.256058 164.645248,103.223785
      C148.945572,132.005020 125.658653,139.982391 95.343300,127.977005
      C98.890701,138.480347 98.898949,148.547287 95.423820,158.621902
      C89.408371,176.061081 76.746803,186.243469 59.071754,191.059464
      C84.821022,211.912079 88.281479,231.202774 72.102882,263.174988
      C86.437653,261.779999 99.321526,264.969543 110.364761,274.185364
      C121.429024,283.418701 126.681236,295.622498 127.891235,310.452820
      C138.352753,299.531860 150.369446,293.909149 164.770432,293.908051
      C179.132355,293.906952 191.048065,299.731628 201.530975,310.486755
      C202.458160,295.297119 208.076050,283.311768 219.077805,274.065125
      C230.047256,264.845612 242.983673,261.918182 257.711273,263.116730
      C249.496674,251.457474 245.643219,239.576447 247.713196,225.348724 Z"/>
    <path d="M201.948792,67.851517 C210.634903,62.523312 217.697205,63.032848 223.391022,69.150208 C228.659286,74.810318 229.270706,82.611938 224.930084,88.788536 C219.905502,95.938393 209.948334,97.735710 202.835052,92.776794 C195.746094,87.834831 194.147675,77.784279 199.352142,70.685127 C200.034912,69.753792 200.884232,68.944557 201.948792,67.851517 Z"/>
    <path d="M172.874390,361.041870 C163.891006,365.258575 155.429321,363.057220 151.162430,355.662048 C147.048492,348.532013 148.734879,340.001007 155.215530,335.158295 C161.994705,330.092438 171.267670,331.139832 176.782791,337.594299 C181.830887,343.502197 181.251343,353.324036 175.501007,358.939453 C174.788895,359.634827 173.970383,360.221222 172.874390,361.041870 Z"/>
    <path d="M12.022499,234.722595 C12.651584,224.406082 20.273279,217.345032 29.642797,217.971634 C37.987400,218.529694 44.432678,226.049698 43.981113,234.700836 C43.641399,241.209137 38.764862,247.090088 32.367466,248.706558 C25.533834,250.433258 18.625952,247.844162 15.014559,241.928711 C13.737731,239.837280 13.018054,237.405731 12.022499,234.722595 Z"/>
    <path d="M314.193359,242.024048 C308.835876,248.557175 302.843658,250.568542 295.991028,248.392990 C289.966217,246.480255 285.870850,241.213348 285.357361,234.717407 C284.844177,228.224869 288.260315,222.388000 294.342346,219.365677 C300.083435,216.512802 307.624146,217.871063 312.242065,222.589798 C317.574463,228.038620 318.251495,234.080429 314.193359,242.024048 Z"/>
    <path d="M295.134796,152.185715 C286.125885,158.609207 276.197510,157.012268 271.056824,148.617035 C266.282715,140.820511 269.279755,130.821838 277.673279,126.543335 C284.239349,123.196350 292.258392,125.064560 296.954163,131.035248 C301.813416,137.213821 301.215851,145.241745 295.134796,152.185715 Z"/>
    <path d="M43.269600,125.020645 C54.000744,125.265305 60.832684,131.969208 60.385220,141.373428 C59.955349,150.407928 52.490860,156.810257 43.172966,156.136444 C35.658291,155.593063 29.644499,149.477005 29.052387,141.775803 C28.412724,133.456116 33.742329,126.995628 43.269600,125.020645 Z"/>
    <path d="M69.528702,329.848511 C61.869659,325.304688 58.618862,318.803955 60.278992,311.945007 C61.852901,305.442322 67.147598,300.619324 73.429886,299.965607 C80.515648,299.228302 86.433731,302.074646 89.370468,307.841431 C92.450256,313.889099 91.956619,319.818146 87.901039,325.208435 C83.859955,330.579468 77.185822,332.202362 69.528702,329.848511 Z"/>
    <path d="M261.128967,301.537872 C269.317322,307.449371 271.583038,316.149933 267.120422,323.462067 C262.831024,330.490417 253.861221,333.068024 246.659256,329.342010 C239.489441,325.632568 236.136673,317.610352 238.753098,310.424713 C241.672607,302.406677 249.031616,298.371063 257.492798,300.201691 C258.622742,300.446106 259.695709,300.953705 261.128967,301.537872 Z"/>
    <path d="M130.952866,72.293121 C134.530746,80.502251 132.815460,88.088165 126.610626,92.600029 C120.804451,96.822006 112.042587,96.355743 106.800926,91.630440 C101.791595,87.114609 100.679405,81.409424 102.336311,75.276619 C104.064468,68.880035 108.977798,65.263237 115.230171,64.283844 C121.888107,63.240932 127.076660,66.383156 130.952866,72.293121 Z"/>
    <path d="M123.927917,225.929749 C117.309242,207.654602 120.785652,191.766739 134.075546,178.313202 C146.516495,165.719055 165.679718,162.411377 182.147888,169.393570 C197.800827,176.030121 208.727661,192.547546 208.734360,209.582733 C208.742386,229.937653 194.046844,248.122894 174.163986,252.362473 C152.979919,256.879486 132.865067,246.420380 123.927917,225.929749 Z"/>
  </g>
</svg>
